<svg width="40" height="40" viewBox="0 0 40 40" fill="none" xmlns="http://www.w3.org/2000/svg">
<path fill-rule="evenodd" clip-rule="evenodd" d="M11.3235 18.8684C16.4914 16.6168 19.9375 15.1324 21.6617 14.4153C26.5848 12.3676 27.6078 12.0119 28.2745 12.0001C28.4212 11.9975 28.7491 12.0339 28.9615 12.2062C29.1408 12.3518 29.1902 12.5483 29.2138 12.6863C29.2374 12.8243 29.2668 13.1386 29.2434 13.3842C28.9766 16.1873 27.8223 22.9897 27.235 26.1293C26.9865 27.4577 26.4972 27.9032 26.0235 27.9468C24.994 28.0415 24.2123 27.2664 23.2152 26.6128C21.655 25.5901 20.7735 24.9534 19.259 23.9554C17.5088 22.802 18.6434 22.168 19.6409 21.132C19.9019 20.8609 24.4377 16.7352 24.5255 16.361C24.5365 16.3141 24.5467 16.1397 24.4431 16.0475C24.3394 15.9554 24.1864 15.9869 24.076 16.012C23.9195 16.0475 21.427 17.6949 16.5985 20.9543C15.891 21.4401 15.2502 21.6769 14.676 21.6644C14.0431 21.6508 12.8255 21.3066 11.9204 21.0123C10.8102 20.6515 9.92783 20.4607 10.0047 19.8478C10.0447 19.5286 10.4843 19.2021 11.3235 18.8684Z" fill="white"/>
</svg>